<svg width="44" height="44" viewBox="0 0 44 44" fill="none" xmlns="http://www.w3.org/2000/svg">
<g id="Google">
<rect id="Rectangle 7" width="44" height="44" rx="3" fill="white"/>
<g id="Icons">
<g id="Color-">
<g id="Google_2">
<path id="Fill-1" fill-rule="evenodd" clip-rule="evenodd" d="M12.3256 22.4999C12.3256 21.3632 12.5185 20.2735 12.8628 19.2513L6.83628 14.7474C5.66174 17.0813 5 19.7111 5 22.4999C5 25.2864 5.66093 27.9146 6.83384 30.2469L12.8571 25.7343C12.516 24.7169 12.3256 23.6311 12.3256 22.4999Z" fill="#FBBC05"/>
<path id="Fill-2" fill-rule="evenodd" clip-rule="evenodd" d="M22.9071 12.1591C25.4304 12.1591 27.7095 13.0341 29.5001 14.4659L34.7095 9.375C31.535 6.67045 27.4653 5 22.9071 5C15.8306 5 9.74875 8.96057 6.83643 14.7475L12.8629 19.2514C14.2515 15.1261 18.2098 12.1591 22.9071 12.1591Z" fill="#EB4335"/>
<path id="Fill-3" fill-rule="evenodd" clip-rule="evenodd" d="M22.9071 32.8409C18.2098 32.8409 14.2515 29.8739 12.8629 25.7487L6.83643 30.2517C9.74875 36.0395 15.8306 40 22.9071 40C27.2748 40 31.4447 38.4823 34.5743 35.6385L28.8539 31.3105C27.2398 32.3056 25.2074 32.8409 22.9071 32.8409Z" fill="#34A853"/>
<path id="Fill-4" fill-rule="evenodd" clip-rule="evenodd" d="M39.9998 22.4999C39.9998 21.4658 39.837 20.3522 39.5928 19.3181H22.9067V26.0795H32.5114C32.0312 28.3847 30.7239 30.157 28.8535 31.3104L34.5739 35.6385C37.8615 32.6523 39.9998 28.2041 39.9998 22.4999Z" fill="#4285F4"/>
</g>
</g>
</g>
</g>
</svg>
